<svg width="16" height="16" viewBox="0 0 16 16" fill="none" xmlns="http://www.w3.org/2000/svg">
<g clip-path="url(#clip0_0_327)">
<path d="M14.3552 4.00672C14.3552 2.28679 12.9559 0.887445 11.2359 0.887445C9.66196 0.887445 8.35738 2.05945 8.14699 3.57647H6.31137L5.53219 0.329784C5.5025 0.206194 5.41973 0.102073 5.30598 0.04528C5.19229 -0.0115671 5.05929 -0.0150091 4.94263 0.0354379L1.90398 1.35308C1.68595 1.44763 1.58586 1.701 1.68041 1.91897C1.77496 2.13695 2.02843 2.23698 2.2463 2.14254L4.81496 1.02867L5.4264 3.57647H4.55342C4.43558 3.57647 4.32291 3.62476 4.2417 3.71017C4.16044 3.79552 4.11779 3.9105 4.1237 4.02812L4.70089 15.5911C4.71234 15.8202 4.90133 16 5.1306 16H10.6722C10.9015 16 11.0905 15.8202 11.1019 15.5911L11.5252 7.11206C13.1101 6.96551 14.3552 5.62909 14.3552 4.00672ZM10.7973 4.43697L10.7516 5.35126H5.05133L5.00567 4.43697H10.7973Z" fill="#ACC800"/>
</g>
<defs>
<clipPath id="clip0_0_327">
<rect width="16" height="16" fill="white"/>
</clipPath>
</defs>
</svg>
