<svg width="16" height="16" viewBox="0 0 16 16" fill="none" xmlns="http://www.w3.org/2000/svg">
<g clip-path="url(#clip0_0_247)">
<path d="M2.60337 5.4207C3.95881 5.98548 5.37118 6.34257 6.8184 6.48785L6.13615 5.30613L3.80965 5.44579C3.55125 5.46129 3.32915 5.26438 3.31365 5.00598C3.29815 4.74757 3.49506 4.52551 3.75347 4.50998L5.61206 4.39841L5.19865 3.68238L2.87215 3.82204C2.61375 3.83754 2.39165 3.64063 2.37615 3.38223C2.36065 3.12382 2.55756 2.90176 2.81597 2.88623L4.67456 2.77466L4.15534 1.87532C3.63759 0.978507 2.49087 0.671257 1.59406 1.18901C0.697248 1.70679 0.389998 2.85351 0.907779 3.75032L1.64053 5.01951L2.60337 5.4207Z" fill="#ACC800"/>
<path d="M8.31245 6.5625C8.93445 6.5625 9.55151 6.52409 10.162 6.44784C10.1785 6.33212 10.1875 6.214 10.1875 6.09375C10.1875 4.71303 9.06817 3.59375 7.68744 3.59375C7.22763 3.59375 6.79716 3.71844 6.427 3.93503L7.94135 6.55794C8.06485 6.56097 8.18854 6.5625 8.31245 6.5625Z" fill="#ACC800"/>
<path d="M10.794 4.623C11.1404 3.707 11.2038 3.01772 11.2047 3.00716C11.2267 2.74922 11.4537 2.55853 11.7115 2.57978C11.9695 2.60172 12.1608 2.82862 12.1389 3.08656C12.1331 3.15387 12.003 4.56866 11.1242 6.12572C11.1237 6.18291 11.1214 6.23966 11.1181 6.29616C12.1085 6.10563 13.0788 5.81347 14.0215 5.42066L14.5858 5.18556C14.5116 5.00384 14.4083 4.83447 14.2787 4.68506C14.9151 4.40291 15.3437 3.76928 15.3437 3.04688C15.3437 2.05606 14.5376 1.25 13.5468 1.25C13.3898 1.25 13.2344 1.27106 13.0823 1.31278C12.8698 0.547281 12.1736 0 11.3593 0C10.5662 0 9.87959 0.517031 9.64824 1.25819C9.59299 1.25272 9.53853 1.25 9.48431 1.25C8.6275 1.25 7.90928 1.853 7.73059 2.65681C9.08174 2.67353 10.2476 3.47366 10.794 4.623Z" fill="#ACC800"/>
<path d="M14.3822 6.28603C12.449 7.09157 10.4068 7.49997 8.31249 7.49997C6.21814 7.49997 4.17599 7.09157 2.24277 6.28603C1.91393 6.149 1.55846 6.41441 1.59643 6.76866C1.75258 8.22616 2.31783 13.5584 2.4443 14.7431C2.52077 15.4596 3.12193 16 3.84258 16H12.7824C13.5031 16 14.1042 15.4596 14.1807 14.7431C14.3071 13.5584 14.8724 8.22613 15.0286 6.76863C15.0665 6.41441 14.7111 6.149 14.3822 6.28603ZM11.9062 12.875C11.9062 13.1338 11.6964 13.3437 11.4375 13.3437H5.18749C4.92861 13.3437 4.71874 13.1338 4.71874 12.875V10.375C4.71874 10.1161 4.92861 9.90622 5.18749 9.90622H11.4375C11.6964 9.90622 11.9062 10.1161 11.9062 10.375V12.875Z" fill="#ACC800"/>
<path d="M5.65625 10.8438H10.9688V12.4062H5.65625V10.8438Z" fill="#ACC800"/>
</g>
<defs>
<clipPath id="clip0_0_247">
<rect width="16" height="16" fill="white"/>
</clipPath>
</defs>
</svg>
