<svg width="16" height="16" viewBox="0 0 16 16" fill="none" xmlns="http://www.w3.org/2000/svg">
<g clip-path="url(#clip0_0_298)">
<path d="M14.1494 8.3325C15.246 7.23581 15.246 5.45168 14.1494 4.355L13.4864 5.0179C14.2177 5.74912 14.2177 6.9384 13.4864 7.66956L12.4921 6.67525C11.275 5.45812 9.19954 5.58078 8.15951 7.10668L7.94104 7.42746L14.4227 13.8779L14.7435 13.6595C16.2574 12.6284 16.405 10.5569 15.175 9.3269L14.1494 8.3325Z" fill="#ACC800"/>
<path d="M0.125876 6.625H7.35403L7.38522 6.57922C7.87044 5.86722 8.55578 5.36844 9.34307 5.11209C9.06663 3.77469 7.88628 2.84375 6.59328 2.84375H5.18703C5.18703 1.80966 6.02794 0.9375 7.06203 0.9375V0C5.51113 0 4.24953 1.29284 4.24953 2.84375H2.84328C2.05547 2.84375 1.29363 3.16144 0.755314 3.73775C0.136845 4.40106 -0.11903 5.33409 0.0535326 6.24369L0.125876 6.625Z" fill="#ACC800"/>
<path d="M0.936401 7.5625V8.38466C0.936401 10.6597 2.50893 12.6341 4.71765 13.1871V13.1875C4.78203 13.1714 4.83987 13.1426 4.90309 13.1242C4.79643 11.4763 5.37646 9.81366 6.60774 8.58241L7.18912 8.00103L6.75056 7.5625H0.936401Z" fill="#ACC800"/>
<path d="M7.85192 8.66377L7.27051 9.24524C5.66142 10.8543 5.35523 13.3415 6.52601 15.2931L6.52629 15.2927C8.47911 16.4635 10.9963 16.1572 12.605 14.5486L13.1865 13.9671L7.85192 8.66377Z" fill="#ACC800"/>
</g>
<defs>
<clipPath id="clip0_0_298">
<rect width="16" height="16" fill="white"/>
</clipPath>
</defs>
</svg>
