<svg width="16" height="16" viewBox="0 0 16 16" fill="none" xmlns="http://www.w3.org/2000/svg">
<g clip-path="url(#clip0_0_312)">
<path d="M14.7404 3.24822C14.2432 2.751 14.5084 2.48584 14.0111 1.98863C13.514 1.49147 13.2488 1.75666 12.7517 1.2595C12.2545 0.762344 12.5197 0.497156 12.0225 0L11.9774 0.0450625C10.8791 1.14341 10.8791 2.92419 11.9774 4.02253C13.0758 5.12087 14.8566 5.12087 15.9549 4.02253L16 3.97747C15.5028 3.48031 15.2376 3.74544 14.7404 3.24822Z" fill="#ACC800"/>
<path d="M4.02253 11.9775C2.92419 10.8792 1.14341 10.8792 0.0450625 11.9775L0 12.0226C0.497156 12.5197 0.762313 12.2546 1.2595 12.7517C1.75666 13.2489 1.49147 13.514 1.98863 14.0112C2.48584 14.5084 2.751 14.2432 3.24822 14.7404C3.74544 15.2376 3.48028 15.5028 3.97747 16L4.02253 15.9549C5.12087 14.8566 5.12087 13.0759 4.02253 11.9775Z" fill="#ACC800"/>
<path d="M11.3145 4.68545C10.0422 3.41313 8.22057 3.02545 6.61316 3.52173C8.15072 5.11454 8.311 6.55463 8.46582 7.94825C8.61275 9.27047 8.7515 10.5193 10.1544 11.9222L10.3112 12.0791C10.6703 11.8753 11.0084 11.6207 11.3145 11.3146C13.1451 9.48394 13.1451 6.51601 11.3145 4.68545Z" fill="#ACC800"/>
<path d="M7.53413 8.05185C7.38723 6.72966 7.24845 5.48079 5.84554 4.07785L5.68873 3.92101C5.32963 4.12476 4.99157 4.37941 4.68545 4.68554C2.85485 6.51613 2.85485 9.48407 4.68545 11.3147C5.95776 12.587 7.77938 12.9747 9.38679 12.4784C7.84923 10.8856 7.68898 9.44547 7.53413 8.05185Z" fill="#ACC800"/>
</g>
<defs>
<clipPath id="clip0_0_312">
<rect width="16" height="16" fill="white"/>
</clipPath>
</defs>
</svg>
