<svg width="16" height="16" viewBox="0 0 16 16" fill="none" xmlns="http://www.w3.org/2000/svg">
<g clip-path="url(#clip0_0_256)">
<path d="M11.6132 4.19814C11.1271 3.71164 10.5263 3.38818 9.87557 3.22527V3.22539C8.86604 2.97227 7.92457 3.12271 7.06657 3.62921L8.96142 5.5243C9.40551 5.96839 8.72798 6.61655 8.29857 6.18714L6.30995 4.19827C5.86042 4.6478 5.03335 6.03133 4.71017 6.57577L6.31004 8.17564C6.75414 8.61974 6.0766 9.26789 5.6472 8.83849L4.22076 7.41205C3.8576 8.04496 3.46904 8.73333 2.79867 9.96793L3.65823 10.8275C4.10232 11.2716 3.42479 11.9197 2.99539 11.4903L2.3341 10.8291C1.51123 12.3629 0.630667 14.1823 0.0516354 15.3184C-0.107302 15.6292 0.120042 16 0.469073 16C0.759729 16 6.4776 12.7166 6.73089 12.574L5.67695 11.5201C5.24117 11.0843 5.90042 10.4179 6.33979 10.8572L7.57673 12.0942C8.79023 11.4 9.55439 10.934 10.068 10.608L8.32832 8.86827C7.89254 8.43249 8.55179 7.76605 8.99117 8.20543L10.8675 10.0817C11.9502 9.33552 12.5636 8.53499 12.679 7.16849C12.7723 5.99252 12.3377 4.92286 11.6132 4.19814Z" fill="#ACC800"/>
<path d="M14.6546 3.12241C15.0556 2.57262 15.0085 1.79491 14.5127 1.29912C14.0115 0.797406 13.2205 0.754375 12.6689 1.17278C12.5572 0.508125 11.9776 0 11.2819 0C10.5064 0 9.87561 0.630813 9.87561 1.40625V2.25169C10.7795 2.42931 11.6105 2.86937 12.2761 3.53531C12.956 4.21544 13.3811 5.05463 13.555 5.934L14.5947 5.93309C15.3724 5.93309 16.001 5.30366 16 4.52594C15.9991 3.76619 15.4008 3.15244 14.6546 3.12241Z" fill="#ACC800"/>
</g>
<defs>
<clipPath id="clip0_0_256">
<rect width="16" height="16" fill="white"/>
</clipPath>
</defs>
</svg>
