<svg width="24" height="24" viewBox="0 0 24 24" fill="none" xmlns="http://www.w3.org/2000/svg">
<g clip-path="url(#clip0_163_23)">
<path fill-rule="evenodd" clip-rule="evenodd" d="M11.3284 1.06188C11.7031 0.712772 12.297 0.712771 12.6717 1.06188L14.2882 2.55494C14.5295 2.77783 14.5362 3.15695 14.3029 3.38823C14.0837 3.60555 13.7323 3.61177 13.5055 3.40233L12.0001 2.01187L2.28247 10.9907H3.13064C3.65869 10.9907 4.10189 11.4025 4.10189 11.9288V22.062H9.10067V16.3573C9.10067 15.831 9.54387 15.4192 10.0719 15.4192H13.9282C14.4562 15.4192 14.8994 15.831 14.8994 16.3573V22.062H19.8982V11.9288C19.8982 11.4025 20.3414 10.9907 20.8695 10.9907H21.7214L16.9412 6.57563C16.7002 6.353 16.6935 5.97431 16.9265 5.74329C17.1455 5.52617 17.4966 5.51999 17.7231 5.72927L22.9007 10.5132C23.2903 10.8737 23.3012 11.4724 22.9241 11.8458C22.7403 12.0277 22.4893 12.1288 22.2288 12.1288H21.0695V22.262C21.0695 22.7883 20.6263 23.2001 20.0982 23.2001H14.6994C14.1714 23.2001 13.7282 22.7883 13.7282 22.262V16.5573H10.2719V22.262C10.2719 22.7883 9.82872 23.2001 9.30067 23.2001H3.90189C3.37384 23.2001 2.93064 22.7883 2.93064 22.262V12.1288H1.7713C1.24331 12.1288 0.800049 11.717 0.800049 11.1907C0.800049 10.9332 0.909491 10.6887 1.09997 10.5128L11.3284 1.06188Z" fill="#211901"/>
</g>
<defs>
<clipPath id="clip0_163_23">
<rect width="24" height="24" fill="white"/>
</clipPath>
</defs>
</svg>
