<svg width="20" height="20" viewBox="0 0 20 20" fill="none" xmlns="http://www.w3.org/2000/svg">
<path fill-rule="evenodd" clip-rule="evenodd" d="M9.22682 18.5968C9.44075 18.7841 9.71525 18.8873 9.99998 18.8873C10.2846 18.8873 10.5592 18.7841 10.773 18.5971C11.5828 17.8889 12.363 17.2239 13.0514 16.6374C15.066 14.9205 16.8058 13.4378 18.0165 11.9769C19.3698 10.3441 20 8.79576 20 7.10433C20 5.46096 19.4366 3.94485 18.4135 2.83508C17.5103 1.85551 16.3138 1.25983 14.9978 1.12374C14.676 1.09046 14.413 1.35601 14.413 1.67953C14.413 2.00305 14.6764 2.26109 14.9971 2.30348C15.9815 2.43357 16.8734 2.89288 17.5522 3.62915C18.3752 4.52194 18.8285 5.75606 18.8285 7.10433C18.8285 8.5269 18.2998 9.79918 17.1145 11.2295C15.9698 12.6109 14.2677 14.0615 12.2969 15.7413L12.2915 15.7458C11.6003 16.3347 10.8171 17.0022 9.9983 17.7153C9.1844 17.0036 8.40239 16.3371 7.71254 15.7492L7.70888 15.7461L7.7077 15.7451C5.73494 14.0639 4.03114 12.6119 2.88558 11.2295C1.70013 9.79918 1.17141 8.5269 1.17141 7.10433C1.17141 5.75606 1.62475 4.52194 2.44781 3.62915C3.25881 2.74963 4.37362 2.26532 5.58715 2.26532C6.47597 2.26532 7.29216 2.54791 8.01283 3.10516C8.65523 3.60198 9.10261 4.23004 9.36476 4.66949C9.49965 4.89547 9.73707 5.03036 9.99998 5.03036C10.2629 5.03036 10.5003 4.89547 10.6352 4.66949C10.8328 4.33835 11.1356 3.90013 11.5476 3.49166C11.7773 3.26393 11.8268 2.89776 11.6289 2.64188C11.431 2.38596 11.061 2.33717 10.8257 2.5592C10.5288 2.83936 10.253 3.1554 9.99998 3.50509C9.62492 2.98645 9.1992 2.54181 8.72954 2.1785C7.7989 1.45874 6.74162 1.09375 5.58715 1.09375C4.0425 1.09375 2.62191 1.71219 1.58661 2.83508C0.563506 3.94485 0 5.46096 0 7.10433C0 8.79576 0.630339 10.3441 1.98364 11.9771C3.19427 13.4378 4.93422 14.9206 6.94914 16.6377L6.95265 16.6407C7.63991 17.2264 8.41887 17.8903 9.22682 18.5968Z" fill="#FF8B19"/>
</svg>
